<svg width="16" height="16" viewBox="0 0 16 16" fill="none" xmlns="http://www.w3.org/2000/svg">
<path d="M14.4102 0.674805H1.58659C0.972306 0.674805 0.475586 1.15977 0.475586 1.75936V14.6359C0.475586 15.2355 0.972306 15.7234 1.58659 15.7234H14.4102C15.0245 15.7234 15.5241 15.2355 15.5241 14.6388V1.75936C15.5241 1.15977 15.0245 0.674805 14.4102 0.674805ZM4.94019 13.4984H2.70642V6.31507H4.94019V13.4984ZM3.8233 5.33633C3.10614 5.33633 2.52713 4.75731 2.52713 4.04309C2.52713 3.32888 3.10614 2.74986 3.8233 2.74986C4.53752 2.74986 5.11654 3.32888 5.11654 4.04309C5.11654 4.75437 4.53752 5.33633 3.8233 5.33633ZM13.2992 13.4984H11.0684V10.0067C11.0684 9.17489 11.0537 8.10209 9.90739 8.10209C8.74641 8.10209 8.57006 9.01029 8.57006 9.94789V13.4984H6.34217V6.31507H8.48189V7.29676H8.51128C8.80814 6.73244 9.53705 6.13578 10.6216 6.13578C12.8818 6.13578 13.2992 7.62301 13.2992 9.55698V13.4984V13.4984Z" fill="#98A2B3"/>
</svg>
