<svg width="16" height="16" viewBox="0 0 16 16" fill="none" xmlns="http://www.w3.org/2000/svg">
<path fill-rule="evenodd" clip-rule="evenodd" d="M7.58922 0.674805C3.43536 0.674805 0.0649414 4.04523 0.0649414 8.19908C0.0649414 12.353 3.43536 15.7234 7.58922 15.7234C11.7349 15.7234 15.1135 12.353 15.1135 8.19908C15.1135 4.04523 11.7349 0.674805 7.58922 0.674805ZM12.5591 4.14315C13.4568 5.2367 13.9955 6.6322 14.0118 8.14194C13.7996 8.10117 11.6778 7.66862 9.53965 7.93794C9.4907 7.83185 9.44988 7.71758 9.40092 7.60335C9.27033 7.29325 9.12347 6.97498 8.97655 6.67302C11.3432 5.71005 12.4204 4.32269 12.5591 4.14315ZM7.58922 1.78468C9.22138 1.78468 10.7148 2.39674 11.8492 3.40052C11.7349 3.56374 10.7638 4.86131 8.47873 5.71819C7.42599 3.78408 6.25902 2.20088 6.07947 1.95605C6.56093 1.8418 7.06694 1.78468 7.58922 1.78468ZM4.85537 2.38858C5.02673 2.61708 6.16925 4.20844 7.23831 6.10174C4.23512 6.90152 1.58286 6.8852 1.29723 6.8852C1.71343 4.89395 3.05996 3.2373 4.85537 2.38858ZM1.15849 8.20727C1.15849 8.14195 1.15849 8.07667 1.15849 8.0114C1.43596 8.01953 4.55339 8.06035 7.76058 7.09739C7.94832 7.45644 8.11968 7.82367 8.28291 8.1909C8.20127 8.2154 8.1115 8.2399 8.02991 8.26436C4.71661 9.33341 2.95387 12.255 2.80698 12.4998C1.78687 11.3655 1.15849 9.85574 1.15849 8.20727ZM7.58922 14.6298C6.10393 14.6298 4.73293 14.1238 3.64754 13.2751C3.76179 13.0385 5.0675 10.5249 8.69091 9.26001C8.70723 9.25182 8.71542 9.25182 8.73173 9.24369C9.63756 11.5858 10.0048 13.5526 10.1028 14.1157C9.32747 14.4503 8.47873 14.6298 7.58922 14.6298ZM11.1718 13.5281C11.1065 13.1364 10.7638 11.2594 9.9232 8.94986C11.939 8.63159 13.7017 9.15391 13.922 9.22737C13.6446 11.0146 12.6163 12.557 11.1718 13.5281Z" fill="#98A2B3"/>
</svg>
