<svg width="46" height="56" viewBox="0 0 46 56" fill="none" xmlns="http://www.w3.org/2000/svg">
<path d="M0.916504 52.4905V3.50913C0.917524 2.89629 1.08336 2.295 1.39663 1.76828C1.7099 1.24156 2.15908 0.808794 2.69709 0.515334C3.2351 0.221874 3.84214 0.0785238 4.45459 0.100303C5.06704 0.122083 5.66237 0.308188 6.17817 0.639123L44.2808 25.123C44.7633 25.4321 45.1603 25.8576 45.4352 26.3603C45.7102 26.863 45.8543 27.4268 45.8543 27.9998C45.8543 28.5728 45.7102 29.1366 45.4352 29.6393C45.1603 30.142 44.7633 30.5675 44.2808 30.8766L6.17817 55.3673C5.66237 55.6982 5.06704 55.8843 4.45459 55.9061C3.84214 55.9279 3.2351 55.7845 2.69709 55.4911C2.15908 55.1976 1.7099 54.7649 1.39663 54.2381C1.08336 53.7114 0.917524 53.1101 0.916504 52.4973V52.4905Z" fill="#E2E2E2"/>
</svg>
