<svg width="16" height="16" viewBox="0 0 16 16" fill="none" xmlns="http://www.w3.org/2000/svg">
<g clip-path="url(#clip0_18_694)">
<path d="M5.62084 14.3129C11.2981 14.3129 14.4043 9.60812 14.4043 5.52943C14.4043 5.39717 14.4013 5.26197 14.3954 5.1297C14.9997 4.69273 15.5211 4.15148 15.9353 3.53138C15.3725 3.78176 14.7751 3.94527 14.1632 4.01635C14.8074 3.63021 15.2898 3.0236 15.5209 2.30898C14.9148 2.66814 14.2521 2.92149 13.561 3.05818C13.0954 2.56342 12.4797 2.23584 11.8093 2.12607C11.1388 2.0163 10.4508 2.13046 9.85173 2.4509C9.25264 2.77133 8.7758 3.2802 8.49492 3.89883C8.21405 4.51745 8.14478 5.21138 8.29784 5.87332C7.07073 5.81174 5.87026 5.49297 4.77425 4.93767C3.67824 4.38238 2.71116 3.60295 1.93571 2.64993C1.54158 3.32945 1.42098 4.13354 1.59841 4.89879C1.77584 5.66404 2.23799 6.33302 2.89094 6.76976C2.40075 6.7542 1.92129 6.62222 1.49219 6.38473V6.42294C1.49175 7.13605 1.73828 7.8273 2.18987 8.3792C2.64146 8.93109 3.27024 9.30957 3.96932 9.45029C3.51523 9.57453 3.03865 9.59263 2.57645 9.50319C2.77372 10.1165 3.15753 10.6529 3.67432 11.0375C4.19111 11.4221 4.81509 11.6358 5.45919 11.6488C4.36571 12.5077 3.01494 12.9736 1.62445 12.9714C1.37786 12.971 1.13151 12.9559 0.886719 12.9262C2.29931 13.8324 3.94254 14.3137 5.62084 14.3129Z" fill="#98A2B3"/>
</g>
<defs>
<clipPath id="clip0_18_694">
<rect width="15.0486" height="15.0486" fill="white" transform="translate(0.886719 0.674805)"/>
</clipPath>
</defs>
</svg>
